<svg width="67" height="52" viewBox="0 0 67 52" fill="none" xmlns="http://www.w3.org/2000/svg">
<path d="M39.6569 23.8469L43.2407 20.1137L39.5852 16.2998L36.01 20.0419C34.5106 18.9761 32.7989 18.2367 30.9582 17.8624V12.5725H25.8033V17.8653C23.9569 18.2366 22.2539 18.9729 20.7602 20.0417L17.1764 16.2997L13.5296 20.1136L17.1019 23.8467C16.0956 25.4125 15.3874 27.1877 15.029 29.1216H9.95435V34.5013H15.029C15.3873 36.4232 16.0927 38.2014 17.1019 39.7672L13.5296 43.5092L17.1735 47.3172L20.7573 43.5811C22.2509 44.6408 23.9569 45.3803 25.8033 45.7544V51.0503H30.9611V45.7544C32.8017 45.3863 34.5077 44.6497 36.0129 43.5871L39.5881 47.3172L43.2436 43.5092L39.6599 39.7672C40.6748 38.2075 41.3859 36.4232 41.7299 34.5013H46.8102V29.1216H41.727C41.3799 27.1878 40.6747 25.4126 39.6569 23.8469ZM28.378 37.6926C25.273 37.6926 22.7528 35.0492 22.7528 31.8011C22.7528 28.5619 25.273 25.9246 28.378 25.9246C31.4916 25.9246 34.0146 28.5621 34.0146 31.8011C34.0173 35.0492 31.4944 37.6926 28.378 37.6926Z" fill="#084482"/>
<path d="M44.6685 5.73189C40.1472 2.71124 34.8001 0.929932 29.0403 0.929932C13.002 0.93007 0 14.5035 0 31.2503C0 38.2495 2.29368 44.6651 6.10111 49.8022L9.74799 45.9973C6.84649 41.863 5.08047 36.8067 5.08047 31.2743C5.08047 17.4584 15.806 6.26497 29.0374 6.26497C33.4383 6.26497 37.498 7.5912 41.0445 9.77664L38.2463 12.8901L49.6198 13.9678L48.3985 1.56793L44.6685 5.73189Z" fill="#084482"/>
<path d="M66.8107 31.8876L59.6862 24.4514V28.6156H50.3081V35.1598H59.6862V39.333L66.8107 31.8876Z" fill="#084482"/>
</svg>
