<svg width="35" height="35" viewBox="0 0 53 52" fill="none" xmlns="http://www.w3.org/2000/svg">
<path d="M26.2502 33.7117C25.6142 33.7117 25.0991 34.2502 25.0991 34.9143C25.0991 35.5785 25.6143 36.1172 26.2502 36.1172C26.8864 36.1172 27.402 35.5785 27.402 34.9143C27.402 34.2502 26.8864 33.7117 26.2502 33.7117Z" fill="#084482"/>
<path d="M51.4293 0.929932H1.07144C0.479685 0.929932 0 1.43081 0 2.0487V38.6836C0 39.3014 0.479685 39.8024 1.07144 39.8024H19.7907L17.9166 44.5493H14.3937C13.802 44.5493 13.3222 45.0503 13.3222 45.6681V49.9315C13.3222 50.5494 13.802 51.0503 14.3937 51.0503H38.1072C38.6988 51.0503 39.1786 50.5494 39.1786 49.9315V45.6681C39.1786 45.0503 38.6988 44.5493 38.1072 44.5493H34.5844L32.7101 39.8024H51.4293C52.0209 39.8024 52.5007 39.3014 52.5007 38.6836V2.0487C52.5007 1.43069 52.0209 0.929932 51.4293 0.929932ZM50.3578 3.16748V30.1188H2.14289V3.16748H50.3578ZM37.0357 48.8127H15.4651V46.7869H37.0357V48.8127ZM32.2664 44.5493H20.2344L22.1086 39.8024H30.3921L32.2664 44.5493ZM2.14289 37.5648V32.3564H50.3578V37.5648H2.14289Z" fill="#084482"/>
<path d="M34.6295 16.6024C34.6295 15.9846 34.1497 15.4836 33.558 15.4837L32.4154 15.4838C32.3508 15.0953 32.255 14.7179 32.1276 14.3561L33.1156 13.7604C33.6279 13.4513 33.8035 12.7671 33.5075 12.232C33.2115 11.697 32.5564 11.5134 32.0439 11.8227L31.053 12.4203C30.8138 12.1217 30.5496 11.8458 30.2636 11.5959L30.836 10.5613C31.132 10.0263 30.9565 9.34197 30.4441 9.03295C29.9318 8.72372 29.2765 8.90709 28.9804 9.4421L28.4099 10.4736C28.0634 10.3406 27.702 10.2405 27.3299 10.1729V8.98037C27.3299 8.36246 26.8502 7.86157 26.2584 7.86157C26.2558 7.86157 26.253 7.86202 26.2503 7.86202C26.2476 7.86202 26.2448 7.86157 26.2422 7.86157C25.6505 7.86157 25.1707 8.36246 25.1707 8.98037V10.1728C24.7986 10.2404 24.4372 10.3404 24.0907 10.4735L23.5202 9.44199C23.2241 8.90698 22.5688 8.72361 22.0565 9.03284C21.5441 9.34185 21.3686 10.0262 21.6646 10.5612L22.237 11.5958C21.951 11.8457 21.6868 12.1216 21.4476 12.4202L20.4567 11.8226C19.9442 11.5133 19.2891 11.6969 18.9931 12.2319C18.6971 12.7669 18.8727 13.4512 19.385 13.7603L20.373 14.356C20.2456 14.7178 20.1498 15.0952 20.0852 15.4837L18.9426 15.4836C18.3509 15.4835 17.8711 15.9845 17.8711 16.6023C17.8711 17.2202 18.3509 17.7211 18.9426 17.7211L20.0852 17.721C20.1497 18.1094 20.2456 18.4868 20.373 18.8486L19.385 19.4444C18.8727 19.7535 18.6971 20.4376 18.9931 20.9728C19.2891 21.5077 19.9442 21.6913 20.4567 21.382L21.4476 20.7844C21.6868 21.0831 21.951 21.359 22.237 21.6088L21.6646 22.6435C21.3686 23.1785 21.5441 23.8627 22.0565 24.1717C22.5688 24.481 23.2241 24.2976 23.5202 23.7627L24.0907 22.7311C24.4372 22.8641 24.7986 22.9643 25.1707 23.0318V24.2242C25.1707 24.8421 25.6505 25.343 26.2422 25.343C26.2448 25.343 26.2476 25.3426 26.2503 25.3426C26.253 25.3426 26.2558 25.343 26.2584 25.343C26.8502 25.343 27.3299 24.8421 27.3299 24.2242V23.0318C27.702 22.9643 28.0634 22.8642 28.4099 22.7311L28.9804 23.7627C29.2765 24.2976 29.9318 24.481 30.4441 24.1717C30.9565 23.8627 31.132 23.1785 30.836 22.6435L30.2636 21.6088C30.5496 21.359 30.8138 21.0831 31.053 20.7844L32.0439 21.382C32.5564 21.6913 33.2116 21.5077 33.5075 20.9728C33.8035 20.4376 33.6279 19.7535 33.1156 19.4444L32.1276 18.8486C32.255 18.4868 32.3508 18.1094 32.4154 17.721L33.558 17.7211C34.1497 17.7212 34.6295 17.2203 34.6295 16.6024ZM26.2583 20.8923C26.2557 20.8923 26.2529 20.8921 26.2502 20.8921C26.2475 20.8921 26.2447 20.8923 26.2421 20.8923C23.9769 20.8923 22.1341 18.968 22.1341 16.6024C22.1341 14.2369 23.9769 12.3125 26.2421 12.3125C26.2447 12.3125 26.2475 12.3127 26.2502 12.3127C26.2529 12.3127 26.2557 12.3125 26.2583 12.3125C28.5235 12.3125 30.3662 14.2369 30.3662 16.6024C30.3662 18.9679 28.5235 20.8923 26.2583 20.8923Z" fill="#084482"/>
</svg>
