<svg width="26" height="26" viewBox="0 0 26 26" fill="none" xmlns="http://www.w3.org/2000/svg">
<g clip-path="url(#clip0)">
<path d="M10.3958 15.7502H4.14583C3.85833 15.7502 3.625 15.5168 3.625 15.2293C3.625 14.9418 3.85833 14.7085 4.14583 14.7085H10.3958C10.6833 14.7085 10.9167 14.9418 10.9167 15.2293C10.9167 15.5168 10.6833 15.7502 10.3958 15.7502Z" fill="#084482"/>
<path d="M9.35417 18.8752H4.14583C3.85833 18.8752 3.625 18.6418 3.625 18.3543C3.625 18.0668 3.85833 17.8335 4.14583 17.8335H9.35417C9.64167 17.8335 9.875 18.0668 9.875 18.3543C9.875 18.6418 9.64167 18.8752 9.35417 18.8752Z" fill="#084482"/>
<path d="M9.35408 7.41678C8.20513 7.41678 7.27075 6.48241 7.27075 5.33345C7.27075 4.1845 8.20513 3.25012 9.35408 3.25012C10.503 3.25012 11.4374 4.1845 11.4374 5.33345C11.4374 6.48241 10.503 7.41678 9.35408 7.41678ZM9.35408 4.29179C8.78012 4.29179 8.31242 4.7595 8.31242 5.33345C8.31242 5.90741 8.78012 6.37512 9.35408 6.37512C9.92804 6.37512 10.3957 5.90741 10.3957 5.33345C10.3957 4.7595 9.92804 4.29179 9.35408 4.29179Z" fill="#084482"/>
<path d="M13 12.6252C12.7125 12.6252 12.4792 12.3918 12.4792 12.1043V11.0627C12.4792 10.2012 11.7781 9.50016 10.9167 9.50016H7.79166C6.93021 9.50016 6.22917 10.2012 6.22917 11.0627V12.1043C6.22917 12.3918 5.99583 12.6252 5.70833 12.6252C5.42083 12.6252 5.1875 12.3918 5.1875 12.1043V11.0627C5.1875 9.62724 6.35625 8.4585 7.79166 8.4585H10.9167C12.3521 8.4585 13.5208 9.62724 13.5208 11.0627V12.1043C13.5208 12.3918 13.2875 12.6252 13 12.6252Z" fill="#084482"/>
<path d="M10.3958 22.0001H3.10417C1.66875 22.0001 0.5 20.8314 0.5 19.396V2.72929C0.5 1.29387 1.66875 0.125122 3.10417 0.125122H15.6042C17.0396 0.125122 18.2083 1.29387 18.2083 2.72929V9.04179C18.2083 9.32929 17.975 9.56262 17.6875 9.56262C17.4 9.56262 17.1667 9.32929 17.1667 9.04179V2.72929C17.1667 1.86783 16.4656 1.16679 15.6042 1.16679H3.10417C2.24271 1.16679 1.54167 1.86783 1.54167 2.72929V19.396C1.54167 20.2574 2.24271 20.9585 3.10417 20.9585H10.3958C10.6833 20.9585 10.9167 21.1918 10.9167 21.4793C10.9167 21.7668 10.6833 22.0001 10.3958 22.0001Z" fill="#084482"/>
<path d="M18.7291 25.1252C14.9958 25.1252 11.9583 22.0877 11.9583 18.3543C11.9583 14.621 14.9958 11.5835 18.7291 11.5835C22.4624 11.5835 25.4999 14.621 25.4999 18.3543C25.4999 22.0877 22.4624 25.1252 18.7291 25.1252ZM18.7291 12.6252C15.5697 12.6252 12.9999 15.195 12.9999 18.3543C12.9999 21.5137 15.5697 24.0835 18.7291 24.0835C21.8885 24.0835 24.4583 21.5137 24.4583 18.3543C24.4583 15.195 21.8885 12.6252 18.7291 12.6252Z" fill="#084482"/>
<path d="M17.6874 20.9585C17.5499 20.9585 17.4166 20.9033 17.3187 20.8064L15.2354 18.7231C15.0322 18.5199 15.0322 18.1897 15.2354 17.9866C15.4385 17.7835 15.7687 17.7835 15.9718 17.9866L17.6614 19.6762L20.9405 15.9283C21.1301 15.7106 21.4593 15.6887 21.676 15.8793C21.8926 16.0689 21.9145 16.3981 21.7249 16.6147L18.0791 20.7814C17.9843 20.8897 17.8478 20.9543 17.7041 20.9585C17.6989 20.9585 17.6926 20.9585 17.6874 20.9585Z" fill="#084482"/>
</g>
<defs>
<clipPath id="clip0">
<rect width="25" height="25" fill="white" transform="translate(0.5 0.125122)"/>
</clipPath>
</defs>
</svg>
