<svg width="51" height="51" viewBox="0 0 26 51" fill="none" xmlns="http://www.w3.org/2000/svg">
<path d="M22.3372 0.694824H3.46209C1.55021 0.694824 0 2.31352 0 4.30986V47.2002C0 49.197 1.5497 50.8152 3.46209 50.8152H22.3372C24.2501 50.8152 25.8003 49.197 25.8003 47.2002V4.30986C25.7998 2.31352 24.2501 0.694824 22.3372 0.694824ZM10.5836 2.8321H15.2157C15.3821 2.8321 15.5176 2.97358 15.5176 3.14788C15.5176 3.32164 15.3821 3.46312 15.2157 3.46312H10.5836C10.4167 3.46312 10.2817 3.32164 10.2817 3.14788C10.2817 2.97358 10.4172 2.8321 10.5836 2.8321ZM5.96644 2.07359C6.23331 2.07359 6.44969 2.29953 6.44969 2.57819C6.44969 2.85685 6.23382 3.08279 5.96644 3.08279C5.69905 3.08279 5.48319 2.85685 5.48319 2.57819C5.48319 2.29953 5.69957 2.07359 5.96644 2.07359ZM3.77687 1.77126C4.20397 1.77126 4.54966 2.13277 4.54966 2.57819C4.54966 3.02361 4.20397 3.38512 3.77687 3.38512C3.34978 3.38512 3.00408 3.02361 3.00408 2.57819C3.00408 2.13277 3.34978 1.77126 3.77687 1.77126ZM14.1085 48.9802H11.6918C10.9252 48.9802 10.3044 48.332 10.3044 47.5326C10.3044 46.7327 10.9252 46.0844 11.6918 46.0844H14.1085C14.8751 46.0844 15.4959 46.7327 15.4959 47.5326C15.4959 48.332 14.8751 48.9802 14.1085 48.9802ZM24.3335 44.9402H1.46624V6.56925H24.3335V44.9402Z" fill="#084482"/>
</svg>
