<svg width="35" height="35" viewBox="0 0 45 51" fill="none" xmlns="http://www.w3.org/2000/svg">
<path d="M16.6467 31.927L17.7586 31.2567C18.2118 30.9835 18.3671 30.3784 18.1054 29.905L15.9986 26.0947C15.8231 25.7773 15.5046 25.5998 15.1771 25.5998C15.0163 25.5998 14.8534 25.6425 14.7042 25.7326L13.5923 26.4029C13.4396 26.4949 13.2777 26.5369 13.1199 26.5369C12.6249 26.5369 12.1709 26.1236 12.1709 25.546V24.2054C12.1709 23.659 11.7467 23.2158 11.2232 23.2158H7.00938C6.48607 23.2158 6.06167 23.6588 6.06167 24.2054V25.546C6.06167 26.1236 5.60753 26.5369 5.11266 26.5369C4.95492 26.5369 4.79298 26.4949 4.64026 26.4029L3.52834 25.7326C3.37917 25.6427 3.2161 25.6 3.05545 25.5998C2.72786 25.5998 2.40947 25.7773 2.23396 26.0947L0.127132 29.905C-0.134524 30.3784 0.020789 30.9835 0.47396 31.2567L1.58588 31.927C2.21763 32.3079 2.21763 33.26 1.58588 33.6409L0.47396 34.3111C0.0206273 34.5844 -0.134524 35.1895 0.127132 35.6629L2.23396 39.4731C2.40947 39.7906 2.72802 39.9681 3.05545 39.9681C3.21626 39.9681 3.37917 39.9252 3.52834 39.8353L4.64026 39.165C4.79298 39.073 4.95492 39.031 5.11266 39.031C5.60769 39.031 6.06167 39.4443 6.06167 40.0219V41.3625C6.06167 41.9089 6.48591 42.3521 7.00938 42.3521H11.223C11.7463 42.3521 12.1707 41.9091 12.1707 41.3625V40.0219C12.1707 39.4443 12.6249 39.031 13.1198 39.031C13.2775 39.031 13.4394 39.073 13.5922 39.165L14.7041 39.8353C14.8532 39.9252 15.0163 39.9681 15.177 39.9681C15.5046 39.9681 15.8229 39.7906 15.9985 39.4731L18.1053 35.6629C18.3669 35.1895 18.2116 34.5844 17.7585 34.3111L16.6465 33.6409C16.0149 33.26 16.0149 32.3077 16.6467 31.927ZM9.11637 35.7196C7.56357 35.7196 6.3049 34.4051 6.3049 32.7839C6.3049 31.1626 7.56373 29.8483 9.11637 29.8483C10.669 29.8483 11.9278 31.1627 11.9278 32.7839C11.9278 34.4051 10.669 35.7196 9.11637 35.7196Z" fill="#084482"/>
<path d="M15.9157 4.68747C15.4072 4.15691 14.5835 4.15691 14.075 4.68747C13.5667 5.21838 13.5667 6.07869 14.075 6.60942L16.4007 9.03764C7.85295 9.47961 0.933828 16.4902 0.185059 25.3235L0.377382 24.9755C0.927848 23.9799 1.95411 23.3614 3.05537 23.3615C3.07864 23.3615 3.10175 23.3637 3.12502 23.3644C4.59153 16.9988 9.90726 12.1842 16.3477 11.7661L14.075 14.1389C13.5667 14.6697 13.5667 15.5301 14.075 16.0609C14.3292 16.3262 14.6622 16.4588 14.9953 16.4588C15.3284 16.4588 15.6614 16.3262 15.9155 16.0609L20.4414 11.3351C20.6855 11.0801 20.8225 10.7345 20.8225 10.3742C20.8225 10.0137 20.6855 9.6681 20.4414 9.41328L15.9157 4.68747Z" fill="#084482"/>
<path d="M32.3618 11.6399C35.2516 11.6399 37.6027 9.18499 37.6027 6.16744C37.6027 3.14973 35.2516 0.694824 32.3618 0.694824C29.4719 0.694824 27.1208 3.14973 27.1208 6.16727C27.1208 9.18482 29.4719 11.6399 32.3618 11.6399Z" fill="#084482"/>
<path d="M42.5712 26.3921V18.869C42.5712 16.7866 41.2896 14.9399 39.3943 14.2917L39.3856 14.2887L36.6136 13.8094C36.3776 13.7337 36.1255 13.8641 36.0406 14.1071L32.8953 23.1185C32.7138 23.6384 32.0096 23.6384 31.8283 23.1185L28.6829 14.1071C28.6144 13.9109 28.4369 13.7878 28.2469 13.7878C28.2018 13.7878 25.3379 14.288 25.3379 14.288C23.4272 14.9529 22.1504 16.8025 22.1504 18.894V26.3921C22.1504 27.5159 23.0228 28.4266 24.0988 28.4266H40.6226C41.699 28.4266 42.5712 27.5157 42.5712 26.3921Z" fill="#084482"/>
<path d="M44.8872 28.1904C44.7784 29.7455 43.5566 30.6978 42.067 30.8105C40.9257 37.6325 35.4073 42.9002 28.6563 43.3385L30.9287 40.9656C31.437 40.4347 31.437 39.5744 30.9287 39.0436C30.4203 38.5131 29.5965 38.5131 29.0881 39.0436L24.5624 43.7695C24.0541 44.3004 24.0541 45.1607 24.5624 45.6915L29.0881 50.4171C29.3423 50.6824 29.6753 50.8151 30.0083 50.8151C30.3414 50.8151 30.6745 50.6824 30.9286 50.4171C31.4369 49.8864 31.4369 49.0259 30.9286 48.4952L28.6031 46.0669C37.6581 45.5988 44.8872 37.7596 44.8872 28.1904Z" fill="#084482"/>
<path d="M33.5041 13.707C33.3833 13.5697 33.2067 13.5005 33.0279 13.5005H31.6954C31.5168 13.5005 31.3401 13.5697 31.2192 13.707C31.0323 13.9198 31.0051 14.2271 31.1378 14.4673L31.85 15.5884L31.5166 18.5255L32.1733 20.3494C32.2373 20.5328 32.4857 20.5328 32.5499 20.3494L33.2065 18.5255L32.8731 15.5884L33.5853 14.4673C33.7182 14.2271 33.691 13.9198 33.5041 13.707Z" fill="#084482"/>
</svg>
