<svg width="35" height="35" viewBox="0 0 71 52" fill="none" xmlns="http://www.w3.org/2000/svg">
<path d="M69.444 34.7354C65.5162 31.373 61.2852 29.1414 60.4332 28.7041C60.3321 28.6589 60.2743 28.5534 60.2743 28.4327V22.0546C61.0397 21.5269 61.5451 20.6071 61.5451 19.5667V12.9474C61.5451 9.66031 58.9892 6.99146 55.8411 6.99146H55.1624H54.4837C51.3357 6.99146 48.7798 9.66031 48.7798 12.9474V19.5667C48.7798 20.6071 49.2852 21.5118 50.0505 22.0546V28.4327C50.0505 28.478 50.0361 28.5081 50.0361 28.5383C51.2347 29.3977 52.491 30.3627 53.7184 31.4182C55.148 32.6546 55.9711 34.464 55.9711 36.4242V41.7468H70.5559V37.2083C70.5559 36.2583 70.1516 35.3536 69.444 34.7354Z" fill="#084482"/>
<path d="M20.5054 28.4327V22.0546C21.2707 21.5269 21.7761 20.6071 21.7761 19.5667V12.9474C21.7761 9.66031 19.2202 6.99146 16.0722 6.99146H15.3935H14.7148C11.5668 6.99146 9.01081 9.66031 9.01081 12.9474V19.5667C9.01081 20.6071 9.51622 21.5118 10.2816 22.0546V28.4327C10.2816 28.5383 10.2238 28.6438 10.1227 28.7041C9.2563 29.1414 5.02526 31.373 1.11191 34.7354C0.404331 35.3386 0 36.2583 0 37.2083V41.7468H14.5848V36.4242C14.5848 34.4791 15.4079 32.6546 16.8375 31.4182C18.0649 30.3627 19.3213 29.3977 20.5198 28.5383C20.5198 28.5081 20.5054 28.478 20.5054 28.4327Z" fill="#084482"/>
<path d="M52.0578 33.5141C47.4513 29.5636 42.4838 26.94 41.4585 26.4122C41.343 26.3519 41.2708 26.2313 41.2708 26.0956V18.6017C42.1661 17.9684 42.7726 16.8978 42.7726 15.6916V7.92625C42.7726 4.06621 39.769 0.929932 36.0722 0.929932H35.278H34.4838C30.787 0.929932 27.7834 4.06621 27.7834 7.92625V15.6916C27.7834 16.9129 28.3754 17.9835 29.2852 18.6017V26.0956C29.2852 26.2313 29.213 26.3519 29.0975 26.4122C28.0866 26.9249 23.1191 29.5485 18.4982 33.5141C17.6606 34.2228 17.1841 35.2933 17.1841 36.4242V41.7468H24.0144V41.1437C24.0144 39.5906 25.0686 38.2939 26.4693 37.9923C26.4837 37.9622 26.4982 37.932 26.5126 37.9019C26.1805 37.3892 26.0072 36.771 26.0072 36.1377C26.0072 35.2782 26.3249 34.4791 26.9025 33.8609L27.7256 33.0014C28.3032 32.3983 29.083 32.0666 29.9061 32.0666C30.5271 32.0666 31.1191 32.2626 31.6101 32.6094C31.639 32.5943 31.6534 32.5943 31.6823 32.5792C31.9567 31.1016 33.1986 29.9858 34.7004 29.9858H35.87C37.3718 29.9858 38.6137 31.1016 38.8881 32.5792C38.9025 32.5943 38.917 32.5943 38.9459 32.6094C39.4513 32.2475 40.0433 32.0515 40.6787 32.0515C41.5018 32.0515 42.2672 32.3832 42.8448 32.9864L43.6679 33.8458C44.722 34.9465 44.852 36.6654 44.0433 37.9169C44.0578 37.932 44.0578 37.9471 44.0722 37.9773C45.4874 38.2637 46.5704 39.5605 46.5704 41.1286V41.7468H53.4008V36.4242C53.3719 35.2933 52.8953 34.2228 52.0578 33.5141Z" fill="#084482"/>
<path d="M43.4657 40.3295H42.3105C42.1228 39.3343 41.7617 38.3844 41.1841 37.5249L42.0072 36.6654C42.296 36.3638 42.296 35.8512 42.0072 35.5496L41.1841 34.6901C40.8953 34.3886 40.4043 34.3886 40.1155 34.6901L39.2924 35.5496C38.4693 34.9615 37.5451 34.5695 36.6065 34.3886V33.1823C36.6065 32.745 36.2744 32.3982 35.8556 32.3982H34.6859C34.2672 32.3982 33.935 32.745 33.935 33.1823V34.3735C32.982 34.5544 32.0578 34.9465 31.2347 35.5345L30.426 34.6901C30.1372 34.3886 29.6462 34.3886 29.3574 34.6901L28.5343 35.5496C28.2455 35.8512 28.2455 36.3638 28.5343 36.6654L29.3285 37.4947C28.7654 38.3693 28.3755 39.3343 28.2022 40.3295H27.0903C26.6715 40.3295 26.3394 40.6763 26.3394 41.1136V42.3349C26.3394 42.7722 26.6715 43.119 27.0903 43.119H28.2022C28.3755 44.1142 28.7509 45.0943 29.3285 45.9538L28.5487 46.768C28.2599 47.0696 28.2599 47.5822 28.5487 47.8838L29.3718 48.7433C29.6607 49.0449 30.1516 49.0449 30.4404 48.7433L31.2202 47.929C32.0578 48.5171 32.982 48.9091 33.9495 49.1052V50.2662C33.9495 50.7035 34.2816 51.0503 34.7004 51.0503H35.87C36.2888 51.0503 36.6209 50.7035 36.6209 50.2662V49.1052C37.574 48.9091 38.4982 48.5171 39.3213 47.929L40.1155 48.7584C40.4043 49.0599 40.8953 49.0599 41.1841 48.7584L42.0072 47.8989C42.296 47.5973 42.296 47.0847 42.0072 46.7831L41.1986 45.9387C41.7617 45.0641 42.1228 44.1142 42.3105 43.119H43.4513C43.87 43.119 44.2022 42.7722 44.2022 42.3349V41.1136C44.2311 40.6914 43.8845 40.3295 43.4657 40.3295ZM38.0361 44.6118C36.5199 46.195 34.0505 46.2101 32.5199 44.6118C31.0036 43.0285 30.9892 40.4501 32.5199 38.8518C34.0361 37.2685 36.5054 37.2535 38.0361 38.8518C39.5524 40.4501 39.5524 43.0285 38.0361 44.6118Z" fill="#084482"/>
</svg>
