<svg width="26" height="26" viewBox="0 0 26 26" fill="none" xmlns="http://www.w3.org/2000/svg">
<g clip-path="url(#clip0)">
<path d="M25.5 24.4373L17.0272 15.9644C18.411 14.3304 19.25 12.2211 19.25 9.917C19.25 4.74731 15.0447 0.541992 9.87501 0.541992C4.70536 0.541992 0.5 4.74731 0.5 9.917C0.5 15.0867 4.70531 19.292 9.87501 19.292C12.1791 19.292 14.2884 18.453 15.9225 17.0692L24.3953 25.542L25.5 24.4373ZM9.87501 17.7295C5.56745 17.7295 2.06252 14.2246 2.06252 9.917C2.06252 5.60944 5.56745 2.10451 9.87501 2.10451C14.1826 2.10451 17.6875 5.60944 17.6875 9.917C17.6875 14.2246 14.1826 17.7295 9.87501 17.7295Z" fill="#084482"/>
</g>
<defs>
<clipPath id="clip0">
<rect width="25" height="25" fill="white" transform="translate(0.5 0.541992)"/>
</clipPath>
</defs>
</svg>
