<svg width="26" height="26" viewBox="0 0 26 26" fill="none" xmlns="http://www.w3.org/2000/svg">
<g clip-path="url(#clip0)">
<path d="M4.66675 6.54175C3.97759 6.54175 3.41675 7.10259 3.41675 7.79175V11.1251C3.41675 11.8143 3.97759 12.3751 4.66675 12.3751C5.35591 12.3751 5.91675 11.8143 5.91675 11.1251V7.79175C5.91675 7.10259 5.35591 6.54175 4.66675 6.54175ZM5.08345 11.125C5.08345 11.355 4.89678 11.5417 4.6668 11.5417C4.43682 11.5417 4.25015 11.355 4.25015 11.125V7.7917C4.25015 7.56172 4.43682 7.37505 4.6668 7.37505C4.89678 7.37505 5.08345 7.56172 5.08345 7.7917V11.125Z" fill="#084482"/>
<path d="M21.3333 6.54175C20.6441 6.54175 20.0833 7.10259 20.0833 7.79175V11.1251C20.0833 11.8143 20.6441 12.3751 21.3333 12.3751C22.0224 12.3751 22.5833 11.8143 22.5833 11.1251V7.79175C22.5833 7.10259 22.0224 6.54175 21.3333 6.54175ZM21.7499 11.125C21.7499 11.355 21.5632 11.5417 21.3333 11.5417C21.1033 11.5417 20.9166 11.355 20.9166 11.125V7.7917C20.9166 7.56172 21.1033 7.37505 21.3333 7.37505C21.5632 7.37505 21.7499 7.56172 21.7499 7.7917V11.125Z" fill="#084482"/>
<path d="M21.3575 6.93171C20.25 3.26755 16.8133 0.708374 13 0.708374C9.18667 0.708374 5.75 3.26755 4.64248 6.93171C4.57583 7.15173 4.70039 7.38464 4.9208 7.4509C5.14165 7.51799 5.37373 7.39299 5.44038 7.17258C6.44248 3.85754 9.55083 1.54172 13 1.54172C16.4492 1.54172 19.5575 3.85754 20.5596 7.17258C20.6142 7.353 20.7796 7.46882 20.9583 7.46882C20.9983 7.46882 21.0387 7.46296 21.0791 7.4509C21.2996 7.38464 21.4242 7.15168 21.3575 6.93171Z" fill="#084482"/>
<path d="M21.3334 11.5417C21.1034 11.5417 20.9168 11.728 20.9168 11.9584C20.9168 13.1071 19.9822 14.0417 18.8334 14.0417C18.6034 14.0417 18.4167 14.228 18.4167 14.4584C18.4167 14.6888 18.6034 14.875 18.8334 14.875C20.4418 14.875 21.7501 13.5663 21.7501 11.9584C21.7501 11.728 21.5634 11.5417 21.3334 11.5417Z" fill="#084482"/>
<path d="M18 12.7917H15.5C14.8108 12.7917 14.25 13.3526 14.25 14.0417V14.8751C14.25 15.5643 14.8108 16.1251 15.5 16.1251H18C18.6892 16.1251 19.25 15.5643 19.25 14.8751V14.0417C19.25 13.3526 18.6892 12.7917 18 12.7917ZM18.4166 14.875C18.4166 15.105 18.23 15.2917 18 15.2917H15.5C15.27 15.2917 15.0833 15.105 15.0833 14.875V14.0417C15.0833 13.8117 15.27 13.625 15.5 13.625H18C18.23 13.625 18.4166 13.8117 18.4166 14.0417V14.875Z" fill="#084482"/>
<path d="M12.9999 2.79175C9.32363 2.79175 6.33325 5.78257 6.33325 9.4584C6.33325 13.1342 9.32363 16.1251 12.9999 16.1251C13.6799 16.1251 14.3532 16.0221 15.0012 15.8188C15.1353 15.7763 15.2395 15.6692 15.2774 15.5338C15.3154 15.398 15.2824 15.2525 15.1895 15.1463C15.1412 15.0913 15.0833 14.9992 15.0833 14.875V14.0417C15.0833 13.8117 15.2699 13.625 15.4999 13.625H17.9912C18.1224 13.625 18.2457 13.5638 18.3245 13.4592C19.2024 12.2921 19.6666 10.9088 19.6666 9.4584C19.6665 5.78257 16.6762 2.79175 12.9999 2.79175ZM17.7791 12.7917H15.4999C14.8107 12.7917 14.2499 13.3526 14.2499 14.0417V14.8751C14.2499 14.968 14.2607 15.0601 14.2816 15.1497C13.8616 15.2442 13.4324 15.2917 12.9999 15.2917C9.78325 15.2917 7.16655 12.6751 7.16655 9.4584C7.16655 6.2417 9.78325 3.62505 12.9999 3.62505C16.2166 3.62505 18.8333 6.24175 18.8333 9.4584C18.8333 10.6584 18.4695 11.8067 17.7791 12.7917Z" fill="#084482"/>
<path d="M17.3283 16.9584H8.67119C6.00371 16.9584 3.83325 19.1288 3.83325 21.7963V25.2917C3.83325 25.5221 4.01992 25.7084 4.2499 25.7084H21.7499C21.9799 25.7084 22.1666 25.5221 22.1666 25.2917V21.7963C22.1666 19.1288 19.9962 16.9584 17.3283 16.9584ZM21.3333 24.875H4.6666V21.7963C4.6666 19.5884 6.46328 17.7917 8.67119 17.7917H17.3287C19.5366 17.7917 21.3333 19.5879 21.3333 21.7963V24.875Z" fill="#084482"/>
<path d="M7.5834 21.9584C7.35342 21.9584 7.16675 22.1446 7.16675 22.375V25.2917C7.16675 25.5221 7.35342 25.7083 7.5834 25.7083C7.81338 25.7083 8.00005 25.5221 8.00005 25.2917V22.375C8.00005 22.1446 7.81338 21.9584 7.5834 21.9584Z" fill="#084482"/>
<path d="M18.8334 21.9584C18.6034 21.9584 18.4167 22.1446 18.4167 22.375V25.2917C18.4167 25.5221 18.6034 25.7083 18.8334 25.7083C19.0634 25.7083 19.2501 25.5221 19.2501 25.2917V22.375C19.2501 22.1446 19.0634 21.9584 18.8334 21.9584Z" fill="#084482"/>
</g>
<defs>
<clipPath id="clip0">
<rect width="25" height="25" fill="white" transform="translate(0.5 0.708374)"/>
</clipPath>
</defs>
</svg>
