<svg width="35" height="35" viewBox="0 0 51 51" fill="none" xmlns="http://www.w3.org/2000/svg">
<path d="M22.1184 28.0317C23.962 26.7283 26.6212 24.4206 29.7933 21.3814C29.2207 21.0201 28.6131 20.5598 28.0404 19.9727C27.4122 19.3554 26.9055 18.7016 26.5285 18.0757C23.7786 21.4825 21.7147 24.3345 20.5344 26.3133C20.1533 26.3133 16.8453 26.3757 14.5403 28.8857C12.0953 31.557 12.2334 38.0309 12.2334 38.0309C12.2334 38.0309 13.8008 35.4929 16.732 34.7746C20.1287 33.9551 21.6632 31.7118 22.1184 28.0317Z" fill="#084482"/>
<path d="M18.7217 44.1711L18.9544 44.397L27.4142 39.8072L22.9134 35.2905L18.7217 44.1711Z" fill="#084482"/>
<path d="M41.6145 14.9204L39.0191 17.7465V11.892C39.5361 11.3457 39.8596 11.0037 39.8596 11.0037C39.8596 11.0037 47.8866 2.53376 45.6291 0.914181C43.3674 -0.701113 35.9789 7.13436 35.9789 7.13436C35.9789 7.13436 34.708 8.5625 33.0725 10.4208H0V50.8152H39.0191V27.1779L46.1193 19.4414L41.6145 14.9204ZM35.8059 47.4535C33.0148 47.4535 6.0106 47.4535 3.21538 47.4535C3.21538 44.5413 3.21538 16.6904 3.21538 13.7761C5.32879 13.7761 21.282 13.7761 30.1434 13.7761C28.9302 15.1763 27.7829 16.5205 27.0042 17.4819C27.3832 18.1228 27.9064 18.7918 28.5409 19.4327C29.128 20.0156 29.7438 20.5038 30.3268 20.8587C31.6801 19.5402 33.8676 17.284 35.8059 15.2623C35.8059 16.641 35.8059 18.753 35.8059 21.2501L23.8342 34.2927L28.339 38.8116L35.8059 30.6794C35.8059 38.3491 35.8059 46.0017 35.8059 47.4535Z" fill="#084482"/>
<path d="M50.6572 12.9308L47.6437 9.92625C47.2399 9.51117 46.4449 9.65744 45.9093 10.251L42.5085 13.9461L47.0174 18.4691L50.4121 14.7612C50.9641 14.1697 51.0671 13.3374 50.6572 12.9308Z" fill="#084482"/>
</svg>
