<svg width="172" height="24" viewBox="0 0 172 24" fill="none" xmlns="http://www.w3.org/2000/svg">
<path d="M13.1956 0C14.3803 0 15.4535 0.175182 16.4153 0.525547C17.3771 0.875912 18.1923 1.35474 18.8609 1.96204C19.5412 2.56934 20.0631 3.28175 20.4268 4.09927C20.7904 4.90511 20.9722 5.7635 20.9722 6.67445V17.3255C20.9722 18.2365 20.7904 19.1007 20.4268 19.9182C20.0631 20.7241 19.5412 21.4307 18.8609 22.038C18.1923 22.6453 17.3771 23.1241 16.4153 23.4745C15.4535 23.8248 14.3803 24 13.1956 24H7.7766C6.59193 24 5.51869 23.8248 4.55687 23.4745C3.59506 23.1241 2.774 22.6453 2.0937 22.038C1.42512 21.4307 0.909029 20.7241 0.545417 19.9182C0.181806 19.1007 0 18.2365 0 17.3255V6.67445C0 5.7635 0.181806 4.90511 0.545417 4.09927C0.909029 3.28175 1.42512 2.56934 2.0937 1.96204C2.774 1.35474 3.59506 0.875912 4.55687 0.525547C5.51869 0.175182 6.59193 0 7.7766 0H13.1956ZM16.8552 4.4146L16.6088 2.94307L15.5004 1.8219L13.6882 1.57664H5.84124V16.0642H13.6882L15.5004 15.854L16.6088 14.7504L16.8552 13.2438V4.4146ZM14.7439 14.0321L13.5827 14.2073H7.67103V3.43358H13.5827L14.8142 3.62628L14.9902 4.65985V13.0511L14.7439 14.0321Z" fill="#084482"/>
<path d="M36.8245 14.2073H29.8044V9.75766H35.6809V7.91825H29.8044V3.43358H36.5782V1.57664H27.9746V16.0642H36.8245V14.2073ZM34.027 0C35.2117 0 36.2849 0.175182 37.2467 0.525547C38.2085 0.875912 39.0237 1.35474 39.6923 1.96204C40.3726 2.56934 40.8946 3.28175 41.2582 4.09927C41.6218 4.90511 41.8036 5.7635 41.8036 6.67445V17.3255C41.8036 18.2365 41.6218 19.1007 41.2582 19.9182C40.8946 20.7241 40.3726 21.4307 39.6923 22.038C39.0237 22.6453 38.2085 23.1241 37.2467 23.4745C36.2849 23.8248 35.2117 24 34.027 24H28.608C27.4233 24 26.3501 23.8248 25.3883 23.4745C24.4265 23.1241 23.6054 22.6453 22.9251 22.038C22.2565 21.4307 21.7405 20.7241 21.3768 19.9182C21.0132 19.1007 20.8314 18.2365 20.8314 17.3255V6.67445C20.8314 5.7635 21.0132 4.90511 21.3768 4.09927C21.7405 3.28175 22.2565 2.56934 22.9251 1.96204C23.6054 1.35474 24.4265 0.875912 25.3883 0.525547C26.3501 0.175182 27.4233 0 28.608 0H34.027Z" fill="#084482"/>
<path d="M52.7999 16.1869L53.9787 15.854L55.0344 14.8204L58.4828 1.92701L56.4419 1.57664L53.2574 14.1022L52.8703 14.2423L52.3953 14.1372L49.2283 1.57664L47.1698 1.92701L50.6358 14.8204L51.6739 15.854L52.7999 16.1869ZM54.8584 0C56.0431 0 57.1163 0.175182 58.0782 0.525547C59.04 0.875912 59.8552 1.35474 60.5237 1.96204C61.204 2.56934 61.726 3.28175 62.0896 4.09927C62.4532 4.90511 62.635 5.7635 62.635 6.67445V17.3255C62.635 18.2365 62.4532 19.1007 62.0896 19.9182C61.726 20.7241 61.204 21.4307 60.5237 22.038C59.8552 22.6453 59.04 23.1241 58.0782 23.4745C57.1163 23.8248 56.0431 24 54.8584 24H49.4394C48.2548 24 47.1815 23.8248 46.2197 23.4745C45.2579 23.1241 44.4369 22.6453 43.7565 22.038C43.088 21.4307 42.5719 20.7241 42.2083 19.9182C41.8447 19.1007 41.6628 18.2365 41.6628 17.3255V6.67445C41.6628 5.7635 41.8447 4.90511 42.2083 4.09927C42.5719 3.28175 43.088 2.56934 43.7565 1.96204C44.4369 1.35474 45.2579 0.875912 46.2197 0.525547C47.1815 0.175182 48.2548 0 49.4394 0H54.8584Z" fill="#084482"/>
<path d="M75.4611 1.57664H71.2209L69.4088 1.78686L68.3003 2.90803L68.0364 4.37956V13.2788L68.3003 14.7504L69.4439 15.854L71.2209 16.0642H75.4611L77.5196 15.819L77.0798 13.927L75.4259 14.2073H71.3265L70.1653 14.0321L69.919 12.981V4.55474L70.0949 3.59124L71.3265 3.39854H75.3556L77.1678 3.69635L77.5196 1.8219L75.4611 1.57664ZM75.6898 0C76.8745 0 77.9478 0.175182 78.9096 0.525547C79.8714 0.875912 80.6866 1.35474 81.3552 1.96204C82.0355 2.56934 82.5574 3.28175 82.921 4.09927C83.2846 4.90511 83.4664 5.7635 83.4664 6.67445V17.3255C83.4664 18.2365 83.2846 19.1007 82.921 19.9182C82.5574 20.7241 82.0355 21.4307 81.3552 22.038C80.6866 22.6453 79.8714 23.1241 78.9096 23.4745C77.9478 23.8248 76.8745 24 75.6898 24H70.2709C69.0862 24 68.013 23.8248 67.0511 23.4745C66.0893 23.1241 65.2683 22.6453 64.588 22.038C63.9194 21.4307 63.4033 20.7241 63.0397 19.9182C62.6761 19.1007 62.4943 18.2365 62.4943 17.3255V6.67445C62.4943 5.7635 62.6761 4.90511 63.0397 4.09927C63.4033 3.28175 63.9194 2.56934 64.588 1.96204C65.2683 1.35474 66.0893 0.875912 67.0511 0.525547C68.013 0.175182 69.0862 0 70.2709 0H75.6898Z" fill="#084482"/>
<path d="M101.729 0C102.914 0 103.987 0.175182 104.949 0.525547C105.911 0.875912 106.726 1.35474 107.394 1.96204C108.075 2.56934 108.597 3.28175 108.96 4.09927C109.324 4.90511 109.506 5.7635 109.506 6.67445V17.3255C109.506 18.2365 109.324 19.1007 108.96 19.9182C108.597 20.7241 108.075 21.4307 107.394 22.038C106.726 22.6453 105.911 23.1241 104.949 23.4745C103.987 23.8248 102.914 24 101.729 24H96.3102C95.1255 24 94.0522 23.8248 93.0904 23.4745C92.1286 23.1241 91.3076 22.6453 90.6273 22.038C89.9587 21.4307 89.4426 20.7241 89.079 19.9182C88.7154 19.1007 88.5336 18.2365 88.5336 17.3255V6.67445C88.5336 5.7635 88.7154 4.90511 89.079 4.09927C89.4426 3.28175 89.9587 2.56934 90.6273 1.96204C91.3076 1.35474 92.1286 0.875912 93.0904 0.525547C94.0522 0.175182 95.1255 0 96.3102 0H101.729ZM100.603 1.57664V12.946L100.357 13.9971L99.1956 14.2073H96.5741V16.0642H99.3011L101.078 15.819L102.45 14.7504V1.57664H100.603Z" fill="#084482"/>
<path d="M122.561 0C123.745 0 124.818 0.175182 125.78 0.525547C126.742 0.875912 127.557 1.35474 128.226 1.96204C128.906 2.56934 129.428 3.28175 129.792 4.09927C130.155 4.90511 130.337 5.7635 130.337 6.67445V17.3255C130.337 18.2365 130.155 19.1007 129.792 19.9182C129.428 20.7241 128.906 21.4307 128.226 22.038C127.557 22.6453 126.742 23.1241 125.78 23.4745C124.818 23.8248 123.745 24 122.561 24H117.142C115.957 24 114.884 23.8248 113.922 23.4745C112.96 23.1241 112.139 22.6453 111.459 22.038C110.79 21.4307 110.274 20.7241 109.91 19.9182C109.547 19.1007 109.365 18.2365 109.365 17.3255V6.67445C109.365 5.7635 109.547 4.90511 109.91 4.09927C110.274 3.28175 110.79 2.56934 111.459 1.96204C112.139 1.35474 112.96 0.875912 113.922 0.525547C114.884 0.175182 115.957 0 117.142 0H122.561ZM126.185 4.4146L125.939 2.94307L124.83 1.8219L123.018 1.57664H118.303L116.508 1.8219L115.382 2.94307L115.171 4.4146V13.2438L115.382 14.7504L116.543 15.854L118.303 16.0642H123.018L124.83 15.854L125.939 14.7504L126.185 13.2438V4.4146ZM124.074 14.0321L122.912 14.2073H118.408L117.265 14.0321L117.001 12.981V4.58978L117.177 3.62628L118.408 3.43358H122.912L124.144 3.62628L124.32 4.65985V13.0511L124.074 14.0321Z" fill="#084482"/>
<path d="M143.392 0C144.577 0 145.65 0.175182 146.612 0.525547C147.574 0.875912 148.389 1.35474 149.057 1.96204C149.738 2.56934 150.26 3.28175 150.623 4.09927C150.987 4.90511 151.169 5.7635 151.169 6.67445V17.3255C151.169 18.2365 150.987 19.1007 150.623 19.9182C150.26 20.7241 149.738 21.4307 149.057 22.038C148.389 22.6453 147.574 23.1241 146.612 23.4745C145.65 23.8248 144.577 24 143.392 24H137.973C136.788 24 135.715 23.8248 134.753 23.4745C133.791 23.1241 132.97 22.6453 132.29 22.038C131.622 21.4307 131.105 20.7241 130.742 19.9182C130.378 19.1007 130.196 18.2365 130.196 17.3255V6.67445C130.196 5.7635 130.378 4.90511 130.742 4.09927C131.105 3.28175 131.622 2.56934 132.29 1.96204C132.97 1.35474 133.791 0.875912 134.753 0.525547C135.715 0.175182 136.788 0 137.973 0H143.392ZM146.225 10.5109L145.89 9.2146L144.483 8.60146L145.89 8.07591L146.225 6.74453V4.4146L145.978 2.94307L144.87 1.8219L143.058 1.57664H135.668V16.0642H143.058L144.87 15.854L145.978 14.7504L146.225 13.2788V10.5109ZM144.113 14.0321L142.952 14.2073H137.551V9.58248H142.987L144.184 9.72263L144.36 10.7562V13.0861L144.113 14.0321ZM144.113 7.53285L142.952 7.74307H137.551V3.43358H142.952L144.184 3.62628L144.113 4.65985L144.36 6.60438L144.113 7.53285Z" fill="#084482"/>
<path d="M164.223 0C165.408 0 166.481 0.175182 167.443 0.525547C168.405 0.875912 169.22 1.35474 169.889 1.96204C170.569 2.56934 171.091 3.28175 171.455 4.09927C171.818 4.90511 172 5.7635 172 6.67445V17.3255C172 18.2365 171.818 19.1007 171.455 19.9182C171.091 20.7241 170.569 21.4307 169.889 22.038C169.22 22.6453 168.405 23.1241 167.443 23.4745C166.481 23.8248 165.408 24 164.223 24H158.804C157.62 24 156.547 23.8248 155.585 23.4745C154.623 23.1241 153.802 22.6453 153.122 22.038C152.453 21.4307 151.937 20.7241 151.573 19.9182C151.21 19.1007 151.028 18.2365 151.028 17.3255V6.67445C151.028 5.7635 151.21 4.90511 151.573 4.09927C151.937 3.28175 152.453 2.56934 153.122 1.96204C153.802 1.35474 154.623 0.875912 155.585 0.525547C156.547 0.175182 157.62 0 158.804 0H164.223ZM167.531 10.581L167.285 9.07445L166.159 7.9708L164.329 7.7781H160.388L159.315 7.56788C159.256 7.36934 159.215 7.19416 159.191 7.04234C159.168 6.87883 159.127 6.70949 159.068 6.53431V4.69489L159.315 3.66131L160.476 3.43358H164.945L166.599 3.76642L167.021 1.85693L164.98 1.57664H160.353L158.593 1.8219L157.45 2.94307L157.221 4.4146V6.8146L157.45 8.28613L158.593 9.38978L160.353 9.61752H164.329L165.402 9.7927C165.437 9.96788 165.478 10.1314 165.525 10.2832C165.572 10.435 165.613 10.5927 165.649 10.7562V13.0511C165.625 13.2029 165.584 13.3664 165.525 13.5416C165.478 13.7168 165.437 13.8803 165.402 14.0321L164.259 14.2073H159.895L158.171 13.927L157.731 15.819L159.79 16.0642H164.364L166.159 15.854L167.285 14.7504L167.531 13.2438V10.581Z" fill="#084482"/>
</svg>
