<svg width="30" height="15" viewBox="0 0 30 15" fill="none" xmlns="http://www.w3.org/2000/svg">
<path d="M22.953 0C20.7288 0 18.5434 1.38963 16.8574 2.85074C17.2793 3.31145 17.6816 3.78981 18.0631 4.28451C18.2439 4.52313 18.5077 4.84583 18.8336 5.21163C20.1328 4.07218 21.6601 3.06307 22.953 3.06307C25.15 3.06307 26.9369 4.85004 26.9369 7.04695C26.9369 9.24387 25.15 11.0308 22.953 11.0308C20.4965 11.0308 17.1885 7.39804 16.2235 6.12404C15.7505 5.49755 11.4713 0 7.048 0C3.16188 0 0 3.16188 0 7.048C0 10.9341 3.16188 14.095 7.048 14.095C9.20813 14.095 11.3294 12.7831 12.9944 11.3683C12.5309 10.8692 12.0907 10.3491 11.6752 9.80939C11.4654 9.53695 11.2467 9.27156 11.0193 9.01367C9.75368 10.0985 8.29257 11.0308 7.048 11.0308C4.85109 11.0308 3.06412 9.24387 3.06412 7.04695C3.06412 4.85004 4.85109 3.06307 7.048 3.06307C9.50561 3.06307 12.8125 6.69587 13.7775 7.96987C14.2505 8.59636 18.5298 14.0939 22.953 14.0939C24.8214 14.092 26.6127 13.3489 27.9338 12.0277C29.255 10.7066 29.9981 8.91532 30 7.04695C29.9983 5.1785 29.2554 3.38705 27.9342 2.06585C26.613 0.744651 24.8215 0.00167 22.953 0Z" fill="#00AEFF"/>
</svg>
